<svg xmlns="http://www.w3.org/2000/svg" width="500" height="500" viewBox="0 0 500 500" version="1.1"><path d="M 241.384 94.857 C 233.419 98.582, 229.527 107.332, 231.397 117.304 C 232.300 122.118, 238.729 128.384, 244.391 129.969 C 259.806 134.285, 273.048 118.060, 265.998 103.495 C 261.644 94.502, 250.503 90.592, 241.384 94.857 M 228.250 163.716 C 229.762 163.945, 232.238 163.945, 233.750 163.716 C 235.262 163.487, 234.025 163.300, 231 163.300 C 227.975 163.300, 226.738 163.487, 228.250 163.716 M 181.750 186.706 C 182.988 186.944, 185.012 186.944, 186.250 186.706 C 187.488 186.467, 186.475 186.272, 184 186.272 C 181.525 186.272, 180.512 186.467, 181.750 186.706 M 313.750 186.706 C 314.988 186.944, 317.012 186.944, 318.250 186.706 C 319.488 186.467, 318.475 186.272, 316 186.272 C 313.525 186.272, 312.512 186.467, 313.750 186.706 M 109.252 239.500 C 109.263 241.700, 109.468 242.482, 109.707 241.238 C 109.946 239.994, 109.937 238.194, 109.687 237.238 C 109.437 236.282, 109.241 237.300, 109.252 239.500 M 84.308 261.010 C 79.283 263.034, 78.860 265.213, 79.192 287.379 C 79.526 309.653, 79.656 310.171, 85.250 311.543 L 88 312.217 88 286.108 C 88 271.749, 87.662 260.029, 87.250 260.063 C 86.838 260.098, 85.514 260.524, 84.308 261.010 M 412.618 263.160 C 412.278 264.860, 412 276.319, 412 288.625 L 412 311 414.427 311 C 415.859 311, 417.705 309.919, 418.927 308.365 C 420.863 305.905, 421 304.443, 421 286.299 C 421 274.885, 420.575 266.075, 419.970 264.945 C 419.404 263.886, 417.657 262.357, 416.088 261.546 C 413.279 260.093, 413.226 260.118, 412.618 263.160 M 109.355 320.500 C 109.352 325.450, 109.521 327.601, 109.731 325.280 C 109.940 322.959, 109.943 318.909, 109.736 316.280 C 109.530 313.651, 109.358 315.550, 109.355 320.500 M 109 379.500 C 110.866 381.425, 112.617 383, 112.892 383 C 113.167 383, 111.866 381.425, 110 379.500 C 108.134 377.575, 106.383 376, 106.108 376 C 105.833 376, 107.134 377.575, 109 379.500" stroke="none" fill="#f68c5e" fill-rule="evenodd"/><path d="M 238.748 73.486 C 228.407 76.331, 217.962 85.524, 213.014 96.135 C 210.285 101.986, 209.918 103.826, 209.905 111.728 C 209.890 121.095, 211.201 126.026, 215.574 133.062 C 219.066 138.681, 227.524 145.681, 233.030 147.510 L 238 149.161 238 156.539 L 238 163.917 195.861 163.979 C 161.663 164.028, 152.288 164.336, 146.111 165.609 C 122.099 170.559, 99.479 189.600, 91.510 211.572 C 89.359 217.501, 87.311 227.332, 86.739 234.478 C 86.526 237.133, 86.051 237.531, 82.355 238.157 C 69.514 240.333, 60.774 249.495, 57.977 263.713 C 56.522 271.106, 57.187 307.612, 58.875 313.035 C 62.118 323.454, 70.666 330.822, 82.153 333.101 L 87.806 334.222 88.471 338.861 C 90.667 354.179, 97.992 367.808, 110.667 380.158 C 122.513 391.701, 134.645 397.894, 151.500 401.003 C 155.694 401.776, 186.391 402.017, 253.500 401.805 L 349.500 401.500 359 398.194 C 370.651 394.140, 379.691 389.273, 386.710 383.276 C 399.209 372.599, 408.739 355.108, 411.482 337.814 C 412.048 334.243, 412.245 334.092, 417.783 332.963 C 429.467 330.582, 437.344 324.259, 440.742 314.532 C 442.235 310.259, 442.500 305.799, 442.500 284.980 L 442.500 260.461 439.243 253.844 C 437.263 249.821, 434.571 246.147, 432.375 244.473 C 427.998 241.134, 420.064 238, 415.989 238 C 413.142 238, 412.999 237.799, 412.985 233.750 C 412.950 224.240, 407.220 207.558, 400.521 197.466 C 395.242 189.512, 381.370 176.968, 372.978 172.558 C 357.636 164.496, 359.085 164.679, 307.250 164.253 C 281.813 164.045, 260.967 163.565, 260.928 163.187 C 260.888 162.809, 260.707 159.897, 260.527 156.714 L 260.198 150.929 266.225 147.886 C 283.248 139.293, 292.471 121.465, 288.577 104.678 C 286.671 96.457, 284.054 91.172, 279.264 85.870 C 268.661 74.134, 253.375 69.462, 238.748 73.486 M 241.384 94.857 C 233.419 98.582, 229.527 107.332, 231.397 117.304 C 232.300 122.118, 238.729 128.384, 244.391 129.969 C 259.806 134.285, 273.048 118.060, 265.998 103.495 C 261.644 94.502, 250.503 90.592, 241.384 94.857 M 154.500 186.819 C 145.277 187.800, 133.064 194.252, 125.035 202.387 C 117.567 209.953, 114.635 214.573, 111.984 222.946 C 110.048 229.062, 109.936 232.052, 109.795 281.446 C 109.659 328.592, 109.812 334.063, 111.415 339.470 C 113.719 347.244, 116.299 352.218, 121.626 359.153 C 126.872 365.983, 131.468 369.720, 139.740 373.880 C 152.138 380.116, 149.504 379.970, 250 379.970 C 350.504 379.970, 347.933 380.112, 360.595 373.878 C 372.967 367.788, 381.853 357.571, 386.786 343.764 L 389.381 336.500 389.276 282 C 389.159 221.773, 389.358 223.836, 382.543 212.208 C 378.353 205.060, 369.017 196.056, 362.226 192.614 C 349.969 186.403, 356.432 186.756, 252.500 186.622 C 200.250 186.555, 156.150 186.644, 154.500 186.819 M 165.230 239.550 C 157.832 241.542, 154.397 243.514, 149.436 248.619 C 137.681 260.714, 138.138 281.269, 150.435 293.565 C 165.709 308.839, 190.142 304.664, 199.730 285.142 C 202.126 280.261, 202.490 278.354, 202.425 271 C 202.337 261.109, 200.315 255.568, 194.404 249.025 C 189.683 243.799, 183.970 240.504, 177.201 239.099 C 170.957 237.804, 171.840 237.771, 165.230 239.550 M 320.500 239.406 C 313.194 241.211, 309.889 243.247, 304.252 249.415 C 298.316 255.909, 296 261.867, 296 270.641 C 296 279.703, 299.096 287.227, 305.435 293.565 C 320.351 308.481, 343.344 305.124, 354.017 286.471 C 364.301 268.496, 353.599 244.172, 333.306 239.397 C 326.548 237.807, 326.969 237.807, 320.500 239.406 M 84.308 261.010 C 79.283 263.034, 78.860 265.213, 79.192 287.379 C 79.526 309.653, 79.656 310.171, 85.250 311.543 L 88 312.217 88 286.108 C 88 271.749, 87.662 260.029, 87.250 260.063 C 86.838 260.098, 85.514 260.524, 84.308 261.010 M 171.682 262.035 C 169.954 263.395, 169.005 265.097, 169.015 266.823 C 169.034 270.074, 169.811 271.338, 172.741 272.881 C 175.718 274.448, 180.721 271.959, 181.596 268.475 C 182.224 265.971, 179.872 261, 178.059 261 C 177.566 261, 176.534 260.758, 175.764 260.463 C 174.994 260.167, 173.157 260.875, 171.682 262.035 M 326 262 C 321.926 266.074, 324.553 273, 330.174 273 C 335.507 273, 337.837 266.349, 333.961 262.189 C 331.423 259.464, 328.603 259.397, 326 262 M 412.618 263.160 C 412.278 264.860, 412 276.319, 412 288.625 L 412 311 414.427 311 C 415.859 311, 417.705 309.919, 418.927 308.365 C 420.863 305.905, 421 304.443, 421 286.299 C 421 274.885, 420.575 266.075, 419.970 264.945 C 419.404 263.886, 417.657 262.357, 416.088 261.546 C 413.279 260.093, 413.226 260.118, 412.618 263.160 M 281.500 315.193 C 280.400 315.815, 276.928 318.688, 273.785 321.578 C 265.876 328.846, 259.072 331.325, 248.500 330.787 C 238.531 330.280, 231.542 327.283, 223.634 320.122 C 218.786 315.731, 217.400 315, 213.924 315 C 208.507 315, 206.305 316.342, 204.429 320.786 C 201.754 327.126, 204.696 332.906, 214.524 340.621 C 235.876 357.381, 265.598 356.743, 286.825 339.069 C 295.045 332.224, 297.254 328.712, 296.614 323.500 C 295.715 316.167, 287.630 311.723, 281.500 315.193" stroke="none" fill="#124147" fill-rule="evenodd"/></svg>